<svg version="1.1" id="Layer_1" xmlns="http://www.w3.org/2000/svg" xmlns:xlink="http://www.w3.org/1999/xlink" x="0px" y="0px"
	 width="100%" viewBox="0 0 754 1099" enable-background="new 0 0 754 1099" xml:space="preserve">
<path fill="#FFFFFF" opacity="1.000000" stroke="none" 
	d="
M325.000000,1100.000000 
	C216.666672,1100.000000 108.833344,1100.000000 1.000015,1100.000000 
	C1.000010,733.666687 1.000010,367.333405 1.000005,1.000064 
	C252.333298,1.000042 503.666595,1.000042 754.999878,1.000021 
	C754.999939,367.333252 754.999939,733.666504 755.000000,1099.999878 
	C611.833313,1100.000000 468.666656,1100.000000 325.000000,1100.000000 
M228.500000,1055.000000 
	C334.984222,1055.000000 441.468414,1055.013672 547.952637,1054.953735 
	C552.565247,1054.951172 557.298950,1054.816284 561.769775,1053.818237 
	C587.420288,1048.091919 605.609497,1033.486206 613.946655,1008.096313 
	C616.120728,1001.475342 616.769043,994.353333 618.145020,987.324341 
	C635.536987,985.235168 643.772522,982.674377 655.945312,973.945068 
	C673.843384,961.110107 683.912598,943.591980 683.923645,921.394897 
	C684.045166,677.096130 684.004761,432.797302 683.959778,188.498474 
	C683.959045,184.385056 683.560242,180.243607 683.000000,176.162918 
	C679.280823,149.073288 659.694763,127.409492 632.889343,120.925674 
	C627.506226,119.623573 621.924011,119.144653 616.262573,118.259453 
	C615.743286,106.245827 612.672852,94.897682 606.242310,84.597961 
	C593.380676,63.997578 574.689636,52.259487 550.520935,52.178070 
	C433.372162,51.783436 316.221313,51.985245 199.071198,52.041840 
	C192.957504,52.044792 186.798218,52.288757 180.738739,53.047878 
	C157.946594,55.903252 140.707520,67.665077 130.359421,87.905121 
	C125.446724,97.513977 123.518013,108.648453 120.073723,119.613091 
	C115.916306,120.411446 110.302795,121.009697 105.007561,122.641037 
	C99.699821,124.276230 94.420738,126.446892 89.629593,129.241074 
	C67.002319,142.437195 55.183552,162.705627 55.155666,188.519318 
	C54.893566,431.151428 54.992916,673.783936 55.049885,916.416321 
	C55.051048,921.357910 55.313938,926.396545 56.284508,931.223022 
	C59.490475,947.165955 66.483101,961.038269 79.179070,971.747253 
	C88.755753,979.825134 99.384811,985.394531 111.911987,987.019836 
	C115.339554,987.464539 119.765358,986.747192 121.911880,988.634521 
	C123.922714,990.402527 123.503479,994.917297 124.195847,998.214355 
	C124.364571,999.017822 124.791710,999.768982 124.943321,1000.573669 
	C130.729935,1031.288452 158.409180,1054.583862 190.005600,1054.974731 
	C202.501923,1055.129272 215.001770,1055.000000 228.500000,1055.000000 
z"/>
<path fill="#FFBE89" opacity="1.000000" stroke="none" 
	d="
M228.000000,1055.000000 
	C215.001770,1055.000000 202.501923,1055.129272 190.005600,1054.974731 
	C158.409180,1054.583862 130.729935,1031.288452 124.943321,1000.573669 
	C124.791710,999.768982 124.364571,999.017822 124.195847,998.214355 
	C123.503479,994.917297 123.922714,990.402527 121.911880,988.634521 
	C119.765358,986.747192 115.339554,987.464539 111.911987,987.019836 
	C99.384811,985.394531 88.755753,979.825134 79.179070,971.747253 
	C66.483101,961.038269 59.490475,947.165955 56.284508,931.223022 
	C55.313938,926.396545 55.051048,921.357910 55.049885,916.416321 
	C54.992916,673.783936 54.893566,431.151428 55.155666,188.519318 
	C55.183552,162.705627 67.002319,142.437195 89.629593,129.241074 
	C94.420738,126.446892 99.699821,124.276230 105.007561,122.641037 
	C110.302795,121.009697 115.916306,120.411446 120.073723,119.613091 
	C123.518013,108.648453 125.446724,97.513977 130.359421,87.905121 
	C140.707520,67.665077 157.946594,55.903252 180.738739,53.047878 
	C186.798218,52.288757 192.957504,52.044792 199.071198,52.041840 
	C316.221313,51.985245 433.372162,51.783436 550.520935,52.178070 
	C574.689636,52.259487 593.380676,63.997578 606.242310,84.597961 
	C612.672852,94.897682 615.743286,106.245827 616.262573,118.259453 
	C621.924011,119.144653 627.506226,119.623573 632.889343,120.925674 
	C659.694763,127.409492 679.280823,149.073288 683.000000,176.162918 
	C683.560242,180.243607 683.959045,184.385056 683.959778,188.498474 
	C684.004761,432.797302 684.045166,677.096130 683.923645,921.394897 
	C683.912598,943.591980 673.843384,961.110107 655.945312,973.945068 
	C643.772522,982.674377 635.536987,985.235168 618.145020,987.324341 
	C616.769043,994.353333 616.120728,1001.475342 613.946655,1008.096313 
	C605.609497,1033.486206 587.420288,1048.091919 561.769775,1053.818237 
	C557.298950,1054.816284 552.565247,1054.951172 547.952637,1054.953735 
	C441.468414,1055.013672 334.984222,1055.000000 228.000000,1055.000000 
z"/>
</svg>